<?xml version="1.0" standalone="no"?>
<!DOCTYPE svg PUBLIC "-//W3C//DTD SVG 20010904//EN"
 "http://www.w3.org/TR/2001/REC-SVG-20010904/DTD/svg10.dtd">
<svg version="1.0" xmlns="http://www.w3.org/2000/svg"
 width="500.000000pt" height="500.000000pt" viewBox="0 0 500.000000 500.000000"
 preserveAspectRatio="xMidYMid meet">
<metadata>
Created by potrace 1.14, written by Peter Selinger 2001-2017
</metadata>
<g transform="translate(0.000000,500.000000) scale(0.100000,-0.100000)"
fill="#000000" stroke="none">
<path d="M2580 3790 c-30 -5 -74 -15 -98 -24 -23 -8 -43 -15 -45 -15 -6 2 -85
-14 -112 -21 -16 -5 -55 -12 -85 -15 -30 -3 -62 -8 -70 -10 -8 -2 -39 -7 -69
-10 -30 -4 -63 -9 -75 -11 -12 -3 -40 -7 -62 -9 -59 -6 -66 -8 -87 -27 -10 -9
-56 -26 -100 -38 -74 -20 -113 -36 -249 -106 l-41 -21 -56 34 -56 34 -52 -58
c-29 -32 -53 -63 -53 -69 0 -6 -23 -26 -51 -44 -45 -29 -101 -79 -145 -131
-12 -13 -32 -49 -71 -124 -19 -37 -37 -100 -35 -126 1 -15 -14 -61 -33 -103
-19 -42 -35 -86 -35 -96 0 -10 -6 -25 -13 -32 -18 -18 -67 -122 -67 -141 0 -8
-5 -17 -10 -19 -18 -6 -11 -189 9 -226 6 -12 11 -30 11 -42 0 -12 18 -47 40
-79 28 -43 40 -70 41 -102 4 -58 32 -151 57 -186 11 -15 38 -66 61 -112 24
-46 47 -88 52 -95 5 -6 25 -36 44 -66 19 -30 38 -59 43 -65 4 -5 26 -35 48
-65 57 -76 86 -106 184 -184 47 -37 93 -74 102 -81 9 -7 27 -19 40 -26 13 -6
25 -16 28 -20 7 -10 134 -73 203 -100 28 -12 63 -26 77 -32 14 -5 31 -11 38
-13 7 -1 43 -25 80 -52 83 -62 95 -66 212 -78 36 -3 84 -12 107 -19 23 -7 43
-11 45 -9 2 1 35 5 74 8 91 6 122 11 284 47 52 12 104 25 115 30 11 4 42 11
68 14 27 3 56 10 65 15 19 10 73 24 85 22 4 -1 7 6 7 16 0 23 19 42 41 42 9 0
22 7 29 15 7 8 18 14 24 13 6 -1 38 12 71 28 33 17 76 37 95 44 19 7 43 20 54
29 10 9 19 15 20 13 1 -4 53 14 81 29 12 5 28 11 38 13 9 1 30 18 47 37 59 66
93 99 104 99 7 0 36 -15 65 -34 47 -30 55 -33 68 -20 8 8 21 14 29 14 8 0 18
8 22 19 7 17 69 72 149 131 37 27 62 64 63 91 0 9 23 42 50 73 51 58 88 122
108 186 14 42 17 158 7 260 -4 41 -8 84 -9 95 -1 11 -5 25 -9 32 -4 6 -3 14 3
18 6 4 7 11 3 18 -3 6 -8 31 -9 56 -2 50 -4 59 -33 171 -53 208 -72 259 -129
360 -131 229 -215 344 -313 432 -40 34 -77 68 -83 73 -6 6 -31 26 -56 45 -64
49 -69 54 -84 67 -8 7 -49 30 -92 52 -227 113 -453 179 -619 180 -44 0 -91 2
-105 4 -14 2 -50 1 -80 -3z"/>
</g>
</svg>
